<?xml version="1.0" encoding="utf-8"?>
<!-- Generator: Adobe Illustrator 19.1.0, SVG Export Plug-In . SVG Version: 6.00 Build 0)  -->
<svg version="1.1" id="Layer_1" xmlns="http://www.w3.org/2000/svg" xmlns:xlink="http://www.w3.org/1999/xlink" x="0px" y="0px"
	 width="195px" height="47.25px" viewBox="0 0 195 47.25" enable-background="new 0 0 195 47.25" xml:space="preserve">
<g>
	<path fill="#5F6062" d="M24.25,39.729h-2.341v-0.786h5.615v0.786h-2.34v6.235H24.25V39.729z"/>
	<path fill="#5F6062" d="M28.788,38.943h0.936v3.018h3.697v-3.018h0.935v7.021H33.42v-3.216h-3.697v3.216h-0.936V38.943z"/>
	<path fill="#5F6062" d="M36.377,38.943h4.849v0.786h-3.914v2.232h3.649v0.787h-3.649v2.429h3.944v0.787h-4.879V38.943z"/>
	<path fill="#5F6062" d="M48.009,38.943h1.033l2.744,7.021h-1.032l-0.768-2.114h-2.97l-0.786,2.114h-0.964L48.009,38.943z
		 M47.31,43.063h2.379l-1.169-3.275h-0.021L47.31,43.063z"/>
	<path fill="#5F6062" d="M52.96,38.943h3.306c1.317,0,2.133,0.718,2.133,1.839c0,0.845-0.373,1.544-1.219,1.779v0.02
		c0.816,0.159,0.983,0.758,1.053,1.446c0.059,0.689,0.019,1.455,0.413,1.938h-1.042c-0.266-0.285-0.12-1.041-0.257-1.73
		c-0.099-0.689-0.266-1.27-1.17-1.27h-2.282v3H52.96V38.943z M55.843,42.179c0.875,0,1.622-0.226,1.622-1.249
		c0-0.688-0.373-1.2-1.249-1.2h-2.32v2.449H55.843z"/>
	<path fill="#5F6062" d="M61.778,39.729h-2.341v-0.786h5.616v0.786h-2.34v6.235h-0.935V39.729z"/>
	<path fill="#5F6062" d="M73.281,45.091c-0.424,0.657-1.221,0.992-1.987,0.992c-1.898,0-2.193-1.347-2.193-1.917
		c0-1.103,0.748-1.654,1.642-2.126c-0.394-0.56-0.776-0.934-0.776-1.65c0-0.768,0.571-1.446,1.582-1.446
		c0.877,0,1.702,0.48,1.702,1.434c0,0.837-0.638,1.438-1.317,1.819l1.269,1.544c0.128-0.343,0.207-0.717,0.226-1.091h0.797
		c-0.069,0.827-0.177,1.113-0.472,1.732l1.367,1.582h-1.091L73.281,45.091z M71.205,42.572c-0.658,0.373-1.219,0.747-1.219,1.583
		c0,0.707,0.66,1.189,1.338,1.189c0.639,0,1.15-0.323,1.495-0.836L71.205,42.572z M72.415,40.428c0-0.403-0.306-0.748-0.808-0.748
		c-0.392,0-0.806,0.238-0.806,0.748c0,0.423,0.374,0.836,0.679,1.221C71.883,41.392,72.415,41.018,72.415,40.428z"/>
	<path fill="#5F6062" d="M83.513,40.999c-0.107-1.005-0.776-1.437-1.74-1.437c-0.787,0-1.574,0.285-1.574,1.2
		c0,0.864,1.122,0.992,2.253,1.249c1.121,0.257,2.242,0.648,2.242,2.024c0,1.496-1.466,2.096-2.744,2.096
		c-1.573,0-2.902-0.768-2.902-2.479h0.887c0,1.18,0.983,1.691,2.045,1.691c0.845,0,1.78-0.265,1.78-1.277
		c0-0.964-1.122-1.132-2.244-1.377c-1.12-0.248-2.252-0.57-2.252-1.859c0-1.427,1.269-2.055,2.549-2.055
		c1.435,0,2.526,0.678,2.586,2.223H83.513z"/>
	<path fill="#5F6062" d="M91.25,41.057c-0.198-0.992-0.994-1.494-1.968-1.494c-1.672,0-2.379,1.376-2.379,2.843
		c0,1.604,0.707,2.939,2.389,2.939c1.23,0,1.938-0.865,2.027-2.025h0.934c-0.176,1.752-1.268,2.812-3.038,2.812
		c-2.183,0-3.246-1.611-3.246-3.658c0-2.035,1.161-3.697,3.324-3.697c1.466,0,2.676,0.786,2.893,2.28H91.25z"/>
	<path fill="#5F6062" d="M93.941,38.943h0.934v7.021h-0.934V38.943z"/>
	<path fill="#5F6062" d="M96.937,38.943h4.849v0.786h-3.913v2.232h3.649v0.787h-3.649v2.429h3.944v0.787h-4.879V38.943z"/>
	<path fill="#5F6062" d="M103.427,38.943h0.994l3.697,5.694h0.021v-5.694h0.884v7.021h-1.023l-3.668-5.637h-0.02v5.637h-0.885
		V38.943z"/>
	<path fill="#5F6062" d="M115.961,41.057c-0.197-0.992-0.994-1.494-1.968-1.494c-1.671,0-2.379,1.376-2.379,2.843
		c0,1.604,0.708,2.939,2.388,2.939c1.23,0,1.938-0.865,2.027-2.025h0.934c-0.177,1.752-1.269,2.812-3.039,2.812
		c-2.184,0-3.246-1.611-3.246-3.658c0-2.035,1.161-3.697,3.324-3.697c1.466,0,2.676,0.786,2.892,2.28H115.961z"/>
	<path fill="#5F6062" d="M118.61,38.943h4.849v0.786h-3.914v2.232h3.648v0.787h-3.648v2.429h3.944v0.787h-4.879V38.943z"/>
	<path fill="#5F6062" d="M131.304,38.776c2.232,0,3.363,1.768,3.363,3.679c0,1.907-1.131,3.677-3.363,3.677
		c-2.233,0-3.362-1.77-3.362-3.677C127.941,40.545,129.07,38.776,131.304,38.776z M131.304,45.345c1.711,0,2.43-1.476,2.43-2.89
		c0-1.417-0.719-2.893-2.43-2.893c-1.712,0-2.429,1.476-2.429,2.893C128.875,43.869,129.592,45.345,131.304,45.345z"/>
	<path fill="#5F6062" d="M136.297,38.943h4.613v0.786h-3.679v2.232h3.226v0.787h-3.226v3.216h-0.935V38.943z"/>
	<path fill="#5F6062" d="M145.653,38.943h2.547c0.621,0,1.436,0,1.859,0.256c0.462,0.274,0.827,0.776,0.827,1.464
		c0,0.749-0.393,1.309-1.043,1.574v0.02c0.866,0.178,1.337,0.825,1.337,1.691c0,1.033-0.737,2.017-2.133,2.017h-3.395V38.943z
		 M146.589,41.962h1.868c1.062,0,1.495-0.382,1.495-1.12c0-0.974-0.689-1.112-1.495-1.112h-1.868V41.962z M146.589,45.178h2.34
		c0.806,0,1.317-0.491,1.317-1.259c0-0.914-0.737-1.17-1.524-1.17h-2.133V45.178z"/>
	<path fill="#5F6062" d="M158.485,43.429c0,1.768-1.012,2.703-2.764,2.703c-1.81,0-2.882-0.835-2.882-2.703v-4.485h0.935v4.485
		c0,1.238,0.708,1.916,1.947,1.916c1.181,0,1.829-0.678,1.829-1.916v-4.485h0.935V43.429z"/>
	<path fill="#5F6062" d="M160.506,38.943h0.934v7.021h-0.934V38.943z"/>
	<path fill="#5F6062" d="M163.504,38.943h0.935v6.234h3.719v0.787h-4.653V38.943z"/>
	<path fill="#5F6062" d="M169.459,38.943h2.411c2.162,0,3.371,1.081,3.371,3.344c0,2.351-1.03,3.678-3.371,3.678h-2.411V38.943z
		 M170.395,45.178h1.555c0.638,0,2.359-0.177,2.359-2.764c0-1.672-0.619-2.685-2.341-2.685h-1.573V45.178z"/>
	<path fill="#5F6062" d="M176.909,38.943h0.936v7.021h-0.936V38.943z"/>
	<path fill="#5F6062" d="M179.898,38.943h0.993l3.696,5.694h0.023v-5.694h0.884v7.021h-1.024l-3.666-5.637h-0.02v5.637h-0.886
		V38.943z"/>
	<path fill="#5F6062" d="M192.748,45.091c-0.54,0.736-1.427,1.041-2.251,1.041c-2.097,0-3.347-1.711-3.347-3.541
		c0-2.046,1.122-3.814,3.347-3.814c1.532,0,2.752,0.689,3.018,2.33h-0.936c-0.186-1.062-1.042-1.544-2.083-1.544
		c-1.705,0-2.412,1.476-2.412,2.979c0,1.467,0.848,2.803,2.412,2.803c1.443,0,2.308-1.012,2.251-2.291h-2.243v-0.785h3.079v3.696
		h-0.592L192.748,45.091z"/>
</g>
<g>
	<path fill="#EE3124" d="M31.847,6.234c-7.869,0-11.453,5.375-11.453,10.373c0,4.99,3.499,10.365,11.179,10.365
		c6.762,0,11.483-4.456,11.483-10.837C43.057,10.028,38.76,6.234,31.847,6.234z M32.728,25.383c-4.868,0-8.265-3.942-8.265-9.588
		c0-6.982,4.128-8.024,6.59-8.024c4.642,0,7.885,3.837,7.885,9.33C38.939,24.576,34.594,25.383,32.728,25.383z"/>
	<path fill="#EE3124" d="M86.667,6.978c0-0.377-0.475-0.377-0.729-0.377c-0.702,0-1.672,0.033-2.379,0.056
		c-0.385,0.012-0.683,0.023-0.798,0.023l-0.085-0.004c-1.553-0.063-2.563-0.075-3.135-0.075c-0.255,0-0.728,0-0.728,0.377
		c0,0.373,0.448,0.373,0.62,0.373c0.323,0,0.775,0.031,0.977,0.08c0.872,0.17,1.035,0.539,1.086,1.355
		c0.058,0.832,0.058,1.548,0.058,5.521v3.261c0,2.772-0.116,5.003-1.574,6.366c-1.331,1.237-3.076,1.372-3.761,1.372
		c-1.226,0-2.921-0.182-4.04-1.042c-1.104-0.843-2.123-2.191-2.123-6.304v-3.652c0-3.975,0-4.691,0.052-5.523
		c0.058-0.916,0.28-1.244,0.916-1.353c0.343-0.056,0.496-0.08,0.787-0.08c0.369,0,1.229-0.035,1.229-0.373
		c0-0.251-0.47-0.377-1.396-0.377c-0.557,0-1.346,0.023-2.044,0.044c-0.572,0.019-1.09,0.036-1.391,0.036
		c-0.36,0-0.889-0.016-1.492-0.033c-0.818-0.022-1.744-0.046-2.59-0.046c-0.281,0-0.75,0-0.75,0.377
		c0,0.373,0.446,0.373,0.612,0.373c0.44,0,0.873,0.033,1.064,0.08c0.865,0.17,1.034,0.556,1.086,1.353
		c0.055,0.834,0.055,1.548,0.055,5.523v3.809c0,3.331,0.806,5.561,2.538,7.02c2.169,1.836,5.753,1.836,6.931,1.836
		c1.638,0,3.792-0.217,5.899-1.91c2.378-1.904,2.706-4.953,2.706-7.962v-2.792c0-3.974,0-4.689,0.056-5.523
		c0.059-0.916,0.283-1.244,0.915-1.353c0.337-0.055,0.498-0.08,0.788-0.08C86.233,7.351,86.667,7.351,86.667,6.978z"/>
	<path fill="#EE3124" d="M114.443,25.851c-0.379,0-0.915-0.027-1.693-0.253c-0.706-0.2-1.002-0.788-1.266-2.523l-2.544-16.12
		c-0.092-0.616-0.309-0.927-0.64-0.927c-0.343,0-0.544,0.281-0.742,0.702l-7.471,14.65L92.579,6.91
		c-0.361-0.676-0.564-0.882-0.876-0.882c-0.21,0-0.492,0.137-0.616,0.795l-2.763,17.007c-0.141,0.871-0.348,1.81-1.032,1.944
		c-0.407,0.076-0.596,0.076-0.813,0.076c-0.394,0-0.591,0.111-0.591,0.325c0,0.286,0.218,0.427,0.648,0.427
		c0.507,0,1.15-0.023,1.72-0.046c0.432-0.017,0.814-0.03,1.044-0.03c0.198,0,0.512,0.012,0.895,0.026
		c0.591,0.024,1.329,0.05,2.041,0.05c0.284,0,0.81,0,0.81-0.427c0-0.098-0.053-0.325-0.562-0.325c-0.354,0-0.739-0.041-1.141-0.125
		c-0.489-0.107-0.726-0.332-0.726-0.698c0-0.425,0.031-0.765,0.083-1.205l1.412-10.104c0.382,0.763,0.849,1.684,1.291,2.559
		c0.694,1.374,1.349,2.674,1.498,2.995c0.381,0.836,3.188,5.879,3.217,5.931l0.075,0.131c0.455,0.802,0.707,1.245,1.024,1.245
		c0.358,0,0.528-0.325,1.162-1.539l5.976-11.618l1.633,11.211c0.12,0.754-0.001,0.95-0.05,0.969
		c-0.128,0.049-0.393,0.157-0.393,0.415c0,0.328,0.408,0.388,0.943,0.43c1.099,0.079,4.947,0.155,5.677,0.155
		c0.756,0,0.87-0.267,0.87-0.427C115.033,25.851,114.619,25.851,114.443,25.851z"/>
	<path fill="#EE3124" d="M19.205,2.55l-0.263,0.091c-0.12,0.049-0.181,0.075-0.216,0.09l-1.033,0.112l-0.314,0.014
		c-0.474,0.02-4.037,0.031-10.589,0.031L2.054,2.795c-0.473,0-0.764,0.053-0.764,0.322c0,0.258,0.425,0.258,0.566,0.258
		c0.443,0,1.012,0.028,1.282,0.095C4.25,3.694,4.484,4.243,4.543,5.247c0.065,0.999,0.065,1.862,0.065,6.638v5.509
		c0,2.991,0,5.352-0.16,6.667c-0.126,0.862-0.285,1.588-0.935,1.714L2.316,25.9c-0.125,0-0.5,0-0.5,0.261
		c0,0.268,0.255,0.321,0.701,0.321l4.171-0.096l4.996,0.096c0.001,0,0.001,0,0.001,0c0.222,0,0.732,0,0.732-0.321
		c0-0.261-0.396-0.258-0.558-0.261c-1.518-0.115-1.65-0.125-1.653-0.125c-1.019-0.13-1.185-0.883-1.274-1.712
		C8.77,22.746,8.77,20.385,8.77,17.394v-2.534c0-0.233,0.078-0.277,0.219-0.277c2.88,0,6.168,0.025,6.777,0.095
		c1.212,0.149,1.587,0.899,1.669,1.12c0.121,0.345,0.199,0.725,0.199,0.968c0,0.281,0.102,0.447,0.269,0.447
		c0.336,0,0.336-0.319,0.336-0.595l0.132-2.288l0.265-1.944c0-0.242-0.112-0.291-0.208-0.291c-0.17,0-0.247,0.094-0.355,0.226
		l-0.069,0.081c-0.002,0.003-0.005,0.005-0.007,0.008c-0.363,0.447-0.89,0.534-1.402,0.561l-1.483,0.03l-6.122,0.031
		c-0.187,0-0.219-0.089-0.219-0.274V4.932c0-0.357,0.111-0.432,0.288-0.432l6.97,0.094c1.253,0.032,1.94,0.507,2.162,0.936
		c0.204,0.449,0.199,0.975,0.199,1.188c0.029,0.329,0.093,0.506,0.334,0.506c0.248,0,0.31-0.217,0.34-0.458l0.163-2.512l0.263-1.42
		C19.489,2.653,19.351,2.502,19.205,2.55z"/>
	<path fill="#EE3124" d="M69.799,30.95c-0.205,0-0.448-0.025-0.756-0.076l-0.037-0.007c-0.419-0.08-1.533-0.29-3.017-1.728
		c-0.899-0.883-2.934-3.589-4.903-6.206c-1.592-2.116-3.235-4.301-4.355-5.629c2.539-1.956,3.623-3.714,3.623-5.865
		c0-1.934-1.287-3.262-1.965-3.696c-1.577-1.006-3.522-1.142-5.216-1.142c-0.426,0-1.456,0.017-2.507,0.037
		c-1.093,0.02-2.223,0.043-2.707,0.043c-0.226,0-0.627-0.013-1.117-0.028c-0.8-0.023-1.797-0.052-2.711-0.052
		c-0.282,0-0.754,0-0.754,0.377c0,0.373,0.447,0.373,0.618,0.373c0.436,0,0.869,0.033,1.06,0.08c0.87,0.17,1.037,0.556,1.086,1.355
		c0.056,0.832,0.056,1.548,0.056,5.521v4.59c0,2.39,0,4.454-0.137,5.535c-0.121,0.811-0.261,1.235-0.701,1.318
		c-0.325,0.068-0.644,0.1-0.973,0.1c-0.147,0-0.591,0-0.591,0.352c0,0.267,0.236,0.4,0.7,0.4c0.666,0,1.56-0.025,2.277-0.049
		c0.498-0.014,0.916-0.027,1.133-0.027c0.14,0,0.467,0.009,0.904,0.021c0.846,0.021,2.128,0.055,3.205,0.055
		c0.465,0,0.701-0.133,0.701-0.4c0-0.083-0.036-0.352-0.479-0.352c-0.338,0-0.952-0.051-1.354-0.102
		c-0.705-0.088-0.878-0.51-0.962-1.314c-0.142-1.083-0.142-3.16-0.142-5.562v-0.365c0-0.04,0.008-0.054,0.01-0.057
		c0,0,0.013-0.012,0.071-0.012l3.704,0.052c0.177,0,0.299,0.022,0.399,0.139c0.202,0.218,0.716,0.9,1.312,1.689
		c0.455,0.606,0.968,1.284,1.448,1.901c0.402,0.517,0.989,1.316,1.668,2.242c2.042,2.793,4.588,6.27,5.509,6.729
		c0.774,0.387,1.515,0.512,3.054,0.512h2.655c0.199,0,0.67,0,0.67-0.404C70.276,31.218,70.241,30.95,69.799,30.95z M56.774,12.742
		c0,2.354-0.993,3.39-1.585,3.796c-0.468,0.315-0.81,0.419-1.906,0.419c-0.7,0-2.787-0.08-3.344-0.252
		c-0.115-0.047-0.163-0.074-0.163-0.336V8.438c0-0.165,0.034-0.197,0.15-0.229c0.225-0.063,1.749-0.098,2.714-0.098
		C54.177,8.111,56.774,9.086,56.774,12.742z"/>
</g>
</svg>
