
<svg width="19px" height="16px" viewBox="1342 43 19 16" version="1.1" xmlns="http://www.w3.org/2000/svg" xmlns:xlink="http://www.w3.org/1999/xlink">
    <!-- Generator: Sketch 40.2 (33826) - http://www.bohemiancoding.com/sketch -->
    <desc>Created with Sketch.</desc>
    <defs></defs>
    <path d="M1349.89947,54.093036 C1352.20155,55.9302127 1355.55706,55.9217448 1357.85943,53.920326 C1360.45343,51.6653984 1360.7283,47.734568 1358.47337,45.1405705 C1356.21844,42.5465731 1352.28761,42.2717026 1349.69361,44.5266302 C1347.39125,46.528049 1346.91586,49.849728 1348.41477,52.3850913 L1343,57.0920811 L1344.48469,58.8000258 L1349.89947,54.093036 Z M1350.57413,52.0072787 C1352.11158,53.7759134 1354.79169,53.963325 1356.56032,52.4258744 C1358.32896,50.8884238 1358.51637,48.2083121 1356.97892,46.4396775 C1355.44147,44.6710429 1352.76136,44.4836312 1350.99272,46.0210818 C1349.22409,47.5585325 1349.03667,50.2386441 1350.57413,52.0072787 Z" id="magnifying-Glass" stroke="none" fill="#979797" fill-rule="evenodd"></path>
</svg>