
<svg width="30px" height="30px" viewBox="0 0 30 30" version="1.1" xmlns="http://www.w3.org/2000/svg" xmlns:xlink="http://www.w3.org/1999/xlink">
    <defs>
    <style><![CDATA[
        .social-icons-widget li { display: none; }
        .social-icons-widget li:target { display: inline; }
    ]]></style>
    </defs>
    <g id="twitter" stroke="none" stroke-width="1" fill="none" fill-rule="evenodd">
        <g id="Line" fill="#979797">
            <g id="Group">
                <path d="M29,1 L29,29 L1,29 L1,1 L29,1 L29,1 Z M30,0 L0,0 L0,30 L30,30 L30,0 L30,0 L30,0 Z" id="Shape"></path>
                <path d="M29,1 L29,29 L1,29 L1,1 L29,1 L29,1 Z M30,0 L0,0 L0,30 L30,30 L30,0 L30,0 L30,0 Z" id="Shape"></path>
            </g>
            <path d="M17.141,8.16 C15.612,8.716 14.646,10.151 14.756,11.722 L14.793,12.328 L14.181,12.254 C11.955,11.97 10.01,11.005 8.358,9.385 L7.55,8.58 L7.342,9.174 C6.902,10.497 7.183,11.895 8.1,12.835 C8.589,13.355 8.479,13.429 7.635,13.119 C7.341,13.02 7.085,12.946 7.06,12.983 C6.975,13.07 7.268,14.195 7.5,14.64 C7.818,15.259 8.466,15.864 9.176,16.223 L9.776,16.507 L9.067,16.519 C8.382,16.519 8.358,16.531 8.431,16.792 C8.676,17.596 9.642,18.449 10.718,18.821 L11.476,19.08 L10.816,19.476 C9.838,20.046 8.688,20.367 7.538,20.391 C6.987,20.403 6.534,20.453 6.534,20.49 C6.534,20.613 8.027,21.306 8.895,21.578 C11.5,22.382 14.596,22.035 16.92,20.663 C18.571,19.686 20.222,17.744 20.994,15.864 C21.41,14.863 21.826,13.032 21.826,12.155 C21.826,11.586 21.863,11.512 22.548,10.832 C22.952,10.436 23.331,10.004 23.404,9.88 C23.527,9.645 23.514,9.645 22.89,9.855 C21.85,10.226 21.703,10.177 22.217,9.62 C22.596,9.224 23.049,8.507 23.049,8.297 C23.049,8.26 22.866,8.322 22.657,8.433 C22.437,8.557 21.948,8.742 21.581,8.853 L20.921,9.064 L20.321,8.655 C19.991,8.433 19.526,8.185 19.281,8.111 C18.658,7.938 17.703,7.962 17.141,8.16 L17.141,8.16 Z" id="Shape"></path>
        </g>
    </g>






    <g id="Group" stroke="none" stroke-width="1" fill="none" fill-rule="evenodd">
        <path d="M29,1 L29,29 L1,29 L1,1 L29,1 L29,1 Z M30,0 L0,0 L0,30 L30,30 L30,0 L30,0 L30,0 Z" id="Shape" fill="#979797"></path>
        <g id="Group-3" fill="#979797">
            <path d="M29,1 L29,29 L1,29 L1,1 L29,1 L29,1 Z M30,0 L0,0 L0,30 L30,30 L30,0 L30,0 L30,0 Z" id="Shape"></path>
            <path d="M12.892,23.123 L16.249,23.123 L16.249,14.999 L18.488,14.999 L18.785,12.2 L16.249,12.2 L16.252,10.798 C16.252,10.068 16.322,9.677 17.369,9.677 L18.769,9.677 L18.769,6.877 L16.529,6.877 C13.839,6.877 12.892,8.235 12.892,10.519 L12.892,12.2 L11.215,12.2 L11.215,15 L12.892,15 L12.892,23.123 L12.892,23.123 Z" id="Shape"></path>
        </g>
    </g>









    <g id="Line" stroke="none" stroke-width="1" fill="none" fill-rule="evenodd">
        <g id="Group" fill="#979797">
            <path d="M29,1 L29,29 L1,29 L1,1 L29,1 L29,1 Z M30,0 L0,0 L0,30 L30,30 L30,0 L30,0 L30,0 Z" id="Shape"></path>
            <g id="Group-2">
                <path d="M29,1 L29,29 L1,29 L1,1 L29,1 L29,1 Z M30,0 L0,0 L0,30 L30,30 L30,0 L30,0 L30,0 Z" id="Shape"></path>
                <path d="M22.872,21.524 L22.872,15.702 C22.872,12.583 21.207,11.131 18.987,11.131 C17.195,11.131 16.393,12.117 15.945,12.808 L15.945,11.37 L12.57,11.37 C12.615,12.323 12.57,21.524 12.57,21.524 L15.945,21.524 L15.945,15.853 C15.945,15.55 15.967,15.247 16.056,15.03 C16.3,14.424 16.855,13.796 17.787,13.796 C19.009,13.796 19.497,14.727 19.497,16.092 L19.497,21.525 L22.872,21.524 L22.872,21.524 L22.872,21.524 Z M9.015,9.984 C10.192,9.984 10.925,9.204 10.925,8.229 C10.903,7.233 10.192,6.475 9.038,6.475 C7.884,6.475 7.128,7.233 7.128,8.229 C7.128,9.204 7.861,9.984 8.994,9.984 L9.015,9.984 L9.015,9.984 Z M10.702,21.524 L10.702,11.37 L7.327,11.37 L7.327,21.524 L10.702,21.524 L10.702,21.524 Z" id="Shape"></path>
            </g>
        </g>
    </g>

</svg>
