
<svg width="17px" height="15px" viewBox="0 0 17 15" version="1.1" xmlns="http://www.w3.org/2000/svg" xmlns:xlink="http://www.w3.org/1999/xlink">
    <defs></defs>
    <path d="M8.222,3.72696889 L8.259,4.33296889 L7.647,4.25896889 C5.421,3.97496889 3.476,3.00996889 1.824,1.38996889 L1.016,0.584968889 L0.808,1.17896889 C0.368,2.50196889 0.649,3.89996889 1.566,4.83996889 C2.055,5.35996889 1.945,5.43396889 1.101,5.12396889 C0.807,5.02496889 0.551,4.95096889 0.526,4.98796889 C0.441,5.07496889 0.734,6.19996889 0.966,6.64496889 C1.284,7.26396889 1.932,7.86896889 2.642,8.22796889 L3.242,8.51196889 L2.533,8.52396889 C1.848,8.52396889 1.824,8.53596889 1.897,8.79696889 C2.142,9.60096889 3.108,10.4539689 4.184,10.8259689 L4.942,11.0849689 L4.282,11.4809689 C3.304,12.0509689 2.154,12.3719689 1.004,12.3959689 C0.453,12.4079689 0,12.4579689 0,12.4949689 C0,12.6179689 1.493,13.3109689 2.361,13.5829689 C4.966,14.3869689 8.062,14.0399689 10.386,12.6679689 C12.037,11.6909689 13.688,9.74896889 14.46,7.86896889 C14.876,6.86796889 15.292,5.03696889 15.292,4.15996889 C15.292,3.59096889 15.329,3.51696889 16.014,2.83696889 C16.418,2.44096889 16.797,2.00896889 16.87,1.88496889 C16.993,1.64996889 16.98,1.64996889 16.356,1.85996889 C15.316,2.23096889 15.169,2.18196889 15.683,1.62496889 C16.062,1.22896889 16.515,0.511968889 16.515,0.301968889 C16.515,0.264968889 16.332,0.326968889 16.123,0.437968889 C15.903,0.561968889 15.414,0.746968889 15.047,0.857968889 L14.387,1.06896889 L13.787,0.659968889 C13.457,0.437968889 12.992,0.189968889 12.747,0.115968889 C12.124,-0.0570311114 11.169,-0.0330311114 10.607,0.164968889 C9.078,0.720968889 8.112,2.15596889 8.222,3.72696889 Z" id="Shape" stroke="none" fill="#979797" fill-rule="evenodd"></path>
</svg>